<?xml version="1.0" encoding="UTF-8"?>
<svg width="32px" height="32px" viewBox="0 0 32 32" version="1.1" xmlns="http://www.w3.org/2000/svg">
    <title>Telegram logo</title>
    <defs>
        <linearGradient x1="50%" y1="0%" x2="50%" y2="99.258%" id="linearGradient-1">
            <stop stop-color="#2AABEE" offset="0%" />
            <stop stop-color="#229ED9" offset="100%" />
        </linearGradient>
    </defs>
    <g id="Page-1" stroke="none" stroke-width="1" fill="none" fill-rule="evenodd">
        <g id="t_logo">
            <rect id="Rectangle" fill="url(#linearGradient-1)" x="0" y="0" width="32" height="32" rx="4" />
            <path d="M7.2425094,15.8311062 C11.9068343,13.7989339 15.0171149,12.4592016 16.5733509,11.8119092 C21.0167211,9.96375775 21.9400154,9.64271408 22.5418057,9.63189723 C22.6741639,9.62978145 22.9701069,9.66258378 23.1618063,9.81813463 C23.3236735,9.94947873 23.3682097,10.1269059 23.3895216,10.2514345 C23.4108336,10.3759631 23.4373721,10.6596425 23.416276,10.8813013 C23.1754882,13.4112796 22.1336033,19.5508696 21.6035514,22.3844886 C21.3792666,23.583499 20.9376428,23.985521 20.5100998,24.0248642 C19.5809499,24.110366 18.8753957,23.4108171 17.9754686,22.8209036 C16.5672604,21.8978053 15.7717123,21.3231738 14.4048024,20.4224004 C12.8251015,19.381401 13.8491558,18.8092495 14.7494228,17.874194 C14.9850269,17.6294855 19.0788826,13.9058073 19.1581193,13.5680114 C19.1680291,13.5257643 19.177226,13.3682874 19.0836717,13.2851338 C18.9901174,13.2019802 18.8520393,13.2304155 18.7523983,13.2530303 C18.6111603,13.2850862 16.3615294,14.7720088 12.0035057,17.7137981 C11.3649555,18.1522759 10.7865765,18.3659171 10.2683688,18.3547215 C9.69708633,18.3423792 8.59816813,18.0317097 7.7812354,17.7661571 C6.77923415,17.440446 5.9828635,17.2682401 6.0522095,16.7150819 C6.08832918,16.4269629 6.4850958,16.1323043 7.2425094,15.8311062 Z" id="Path" fill="#FFFFFF" />
        </g>
    </g>
</svg>
